<?xml version="1.0" encoding="UTF-8"?>
<svg width="900px" height="143px" viewBox="0 0 900 143" version="1.1" xmlns="http://www.w3.org/2000/svg" xmlns:xlink="http://www.w3.org/1999/xlink">
    <!-- Generator: Sketch 48.1 (47250) - http://www.bohemiancoding.com/sketch -->
    <title>AT-logo-1-grå-färg-1</title>
    <desc>Created with Sketch.</desc>
    <defs></defs>
    <g id="Page-1" stroke="none" stroke-width="1" fill="none" fill-rule="evenodd" opacity="0.499943388">
        <g id="AT-logo-1-grå-färg-1" transform="translate(-2.000000, -3.000000)" fill-rule="nonzero">
            <g id="g10" transform="translate(451.000000, 73.206670) scale(-1, 1) rotate(-180.000000) translate(-451.000000, -73.206670) translate(0.000000, 0.706670)">
                <g id="g12" transform="translate(-0.000000, 0.000000)">
                    <g id="g14-Clipped">
                        <g id="g14" transform="translate(0.666662, 0.333325)">
                            <g id="g20" transform="translate(1.079467, 0.636667)" fill="#DADBDC">
                                <path d="M26.666666,50.6666654 L75.0333315,141.667996 L80.407998,141.667996 L158.513329,0.865333312 L0.511999987,0.865333312 L4.11733323,7.31199982 L83.4759979,7.31199982 L84.5733312,7.31199982 C84.5733312,7.31199982 85.5146645,7.17999982 84.1026646,9.59866643 L82.6933313,12.553333 C82.6933313,12.553333 82.3573313,13.225333 79.0653314,13.225333 L7.05066649,13.225333 L10.4546664,19.4066662 L78.079998,19.4066662 C78.079998,19.4066662 78.9746647,19.3173329 78.2586647,21.0186661 C77.5413314,22.7199994 76.5573314,24.690666 76.5573314,24.690666 C76.5573314,24.690666 76.8239981,25.6773327 74.3173315,25.4973327 L13.6786663,25.4973327 L16.9919996,31.6773325 L70.3759982,31.6773325 C70.3759982,31.6773325 73.1519982,31.1386659 71.8079982,34.0066658 C70.2866649,36.6039991 70.6439982,37.9359991 67.3319983,37.9359991 L20.2173328,37.9359991 L23.2626661,43.8586656 L64.3746651,43.8586656 C64.3746651,43.8586656 66.434665,44.0373322 65.8973317,45.2013322 C65.3613317,46.3653322 63.8386651,49.7706654 63.8386651,49.7706654 C63.8386651,49.7706654 63.0319984,50.3066654 61.5093318,50.3066654 L27.2933327,50.3066654 C27.2933327,50.3066654 26.666666,50.1293321 26.666666,50.6666654" id="path22"></path>
                            </g>
                            <g id="g24" transform="translate(125.061197, 0.112000)" fill="#DADBDC">
                                <polygon id="path26" points="37.3333324 1.3333333 103.319997 1.2693333 103.319997 79.015998 141.31733 79.015998 141.31733 85.8226645 0.494666654 85.8226645 0.494666654 79.3733313 36.1893324 79.3733313 36.5466658 79.3733313 37.6226657 79.3733313"></polygon>
                            </g>
                            <polygon id="path28" fill="#DADBDC" points="266.361327 98.1159975 125.555997 98.1159975 125.555997 91.3093311 266.361327 91.3093311"></polygon>
                            <polygon id="path30" fill="#DADBDC" points="266.361327 110.298664 125.555997 110.298664 125.555997 103.490664 266.361327 103.490664"></polygon>
                            <polygon id="path32" fill="#DADBDC" points="266.361327 122.479997 125.555997 122.479997 125.555997 115.671997 266.361327 115.671997"></polygon>
                            <polygon id="path34" fill="#DADBDC" points="266.361327 134.66133 125.555997 134.66133 125.555997 127.854663 266.361327 127.854663"></polygon>
                            <g id="g36" transform="translate(241.753861, 0.986933)" fill="#231918">
                                <path d="M42.6666656,27.9999993 L25.362666,27.9999993 L40.9506656,66.6559983 C40.9506656,66.6559983 41.4186656,68.0573316 42.6666656,67.2799983 L42.6666656,27.9999993 Z M28.9479993,69.0199983 L1.04666664,0.875999978 L14.609333,0.875999978 L20.0613328,14.1279996 L42.1986656,14.1279996 L42.1986656,0.875999978 L54.6666653,0.875999978 L54.6666653,55.2799986 L85.5319979,55.2799986 L85.5319979,68.9946649 L28.9479993,69.0199983 Z" id="path38"></path>
                            </g>
                            <polygon id="path40" fill="#231918" points="326.975992 28.9866659 300.162659 28.9866659 300.162659 42.3906656 326.975992 42.3906656"></polygon>
                            <g id="g42" transform="translate(330.542258, 0.673200)" fill="#231918">
                                <polygon id="path44" points="39.999999 69.3333316 39.999999 55.5133319 13.189333 55.5133319 13.189333 41.639999 37.0386657 41.639999 37.0386657 28.2359993 13.189333 28.2359993 13.189333 1.11333331 0.0959999976 1.11333331 0.174666662 69.3333316"></polygon>
                            </g>
                            <g id="g46" transform="translate(357.164658, 1.016933)" fill="#231918">
                                <path d="M45.3333322,27.9999993 L28.030666,27.9999993 L43.6173322,66.658665 C43.6173322,66.658665 44.0839989,68.062665 45.3333322,67.2813317 L45.3333322,27.9999993 Z M30.1359992,69.0186649 L1.21999997,0.875999978 L15.9506663,0.875999978 L21.5613328,14.1266663 L44.8653322,14.1266663 L44.8653322,0.875999978 L58.5826652,0.875999978 L58.6626652,69.0186649 L30.1359992,69.0186649 Z" id="path48"></path>
                            </g>
                            <polygon id="path50" fill="#231918" points="400.237323 72.6746648 388.078657 72.6746648 388.078657 85.4559979 400.237323 85.4559979"></polygon>
                            <polygon id="path52" fill="#231918" points="415.51199 72.6746648 403.353323 72.6746648 403.353323 85.4559979 415.51199 85.4559979"></polygon>
                            <polygon id="path54" fill="#DE2F13" points="827.829313 72.7039982 813.79998 72.7039982 813.79998 85.4866645 827.829313 85.4866645"></polygon>
                            <g id="g56" transform="translate(418.738923, 0.734400)" fill="#231918">
                                <path d="M0,55.9999986 L0,68.7799983 C0,68.7799983 10.6039997,71.8999982 20.2679995,62.8573318 C29.9293326,53.8146653 28.2399993,39.7733323 26.0319993,34.9559991 C24.3186661,31.2133326 21.8266661,27.4719993 20.1106662,26.070666 L30.2426659,1.15199997 L14.9679996,1.15199997 L1.71733329,33.7066658 C1.71733329,33.7066658 14.0279996,31.9933325 14.9679996,44.7759989 C13.409333,58.8053319 2.18533328,55.9999986 0,55.9999986" id="path58"></path>
                            </g>
                            <g id="g60" transform="translate(449.190789, 0.246133)" fill="#231918">
                                <path d="M35.9999991,46.6666655 L44.8866655,55.8626653 C44.8866655,55.8626653 43.3293323,70.8279982 24.3079994,70.8279982 C5.29199987,70.8279982 0.461333322,52.589332 0.461333322,46.1986655 C0.461333322,39.8053323 3.73333324,28.8986659 21.6599995,28.8986659 C36.4679991,28.8986659 35.3799991,21.5679995 35.3799991,21.5679995 C35.3799991,21.5679995 35.3799991,13.933333 25.5573327,13.933333 C16.9813329,13.933333 13.245333,22.8173328 13.245333,22.8173328 L3.11199992,12.9959997 C3.11199992,12.9959997 9.96933308,0.0573333319 25.710666,0.0573333319 C41.4573323,0.0573333319 49.7213321,13.6186663 49.7213321,23.5959994 C49.7213321,33.5746658 43.0173323,42.1439989 28.8333326,42.1439989 C16.6759996,41.9906656 15.7399996,44.4813322 15.2706663,49.9413321 C15.2706663,53.6826653 21.3506661,56.6399986 24.7759994,56.6399986 C28.2079993,56.6399986 33.3519992,55.8626653 35.9999991,46.6666655" id="path62"></path>
                            </g>
                            <polygon id="path64" fill="#231918" points="496.415988 56.2666653 537.56532 56.2666653 537.56532 69.9813316 496.415988 69.9813316"></polygon>
                            <polygon id="path66" fill="#231918" points="510.603987 1.87733329 524.322654 1.87733329 524.322654 56.3746653 510.603987 56.3746653"></polygon>
                            <g id="g68" transform="translate(539.707720, 1.108133)" fill="#231918">
                                <path d="M43.9999989,33.3333325 C46.2093322,38.1506657 50.2359987,52.505332 38.699999,62.7933318 C31.9973325,71.0586649 16.8759996,68.8733316 16.8759996,68.8733316 L14.8519996,68.8733316 L12.2039997,68.8733316 L0.821333313,68.8733316 L0.821333313,0.731999982 L14.8519996,0.731999982 L14.8519996,55.001332 L16.8759996,55.261332 C21.0026661,55.6919986 32.1826659,56.7653319 33.5573325,44.4026656 C32.6186659,31.6199992 17.0306662,34.1146658 17.0306662,34.1146658 L30.6186659,0.706666649 L45.8946655,0.706666649 L36.0519991,24.2946661 C37.7653324,25.6959994 42.2826656,29.5919993 43.9999989,33.3333325" id="path70"></path>
                            </g>
                            <g id="g72" transform="translate(767.697181, 1.264267)" fill="#231918">
                                <path d="M41.3333323,33.3333325 C43.5439989,38.151999 47.9599988,52.273332 36.4213324,62.5599984 C27.5399993,70.2773316 16.0053329,68.8733316 16.0053329,68.8733316 L0.105333331,68.7173316 L0.105333331,0.575999986 L14.1319996,0.575999986 L14.1319996,55.9373319 L16.3146663,55.7799986 C19.8999995,55.7799986 29.4359993,56.9199986 30.8119992,44.5559989 C29.8786659,31.7733325 16.3146663,33.9586658 16.3146663,33.9586658 L29.9013326,0.550666653 L45.1773322,0.550666653 L35.0226658,25.382666 C36.7346657,26.7879993 39.6213323,29.5906659 41.3333323,33.3333325" id="path74"></path>
                            </g>
                            <g id="g76" transform="translate(578.527986, 1.815067)" fill="#231918">
                                <polygon id="path78" points="26.666666 0 53.4799987 68.142665 38.0693324 68.166665 27.9359993 42.9133323 16.7159996 68.166665 1.28266663 68.166665 20.3026662 22.6506661 11.6999997 0"></polygon>
                            </g>
                            <g id="g80" transform="translate(622.216784, 1.720000)" fill="#231918">
                                <path d="M47.9999988,47.9999988 L47.9999988,64.9879984 C47.9999988,64.9879984 41.7693323,67.794665 35.2226658,67.794665 C28.6759993,67.794665 1.24266664,63.1186651 1.24266664,32.5679992 C1.24266664,2.01333328 32.4173325,0.142666663 34.7559991,0.142666663 C37.0933324,0.142666663 39.8986657,-0.481333321 47.3799988,2.79199993 L47.3799988,18.6919995 C47.3799988,18.6919995 42.0813323,14.6399996 35.3746658,14.6399996 C28.6759993,14.6399996 15.8946663,18.6933329 15.8946663,34.2813325 C15.8946663,49.8693321 34.7559991,58.5973319 47.9999988,47.9999988" id="path82"></path>
                            </g>
                            <g id="g84" transform="translate(672.712917, 0.648400)" fill="#231918">
                                <path d="M0,69.3333316 L0,1.19199997 L14.809333,1.19199997 L14.809333,33.0146658 C14.809333,33.0146658 15.9026663,33.3239992 16.5239996,31.1439992 C17.1479996,28.9639993 29.1746659,1.19199997 29.1746659,1.19199997 L44.4506656,1.19199997 L30.0893326,35.0413325 L43.1813323,69.3333316 L27.9053326,69.3333316 L15.5879996,39.7173323 L14.809333,40.6533323 L14.6546663,69.3333316 L0,69.3333316 Z" id="path86"></path>
                            </g>
                            <g id="g88" transform="translate(719.904249, 1.285200)" fill="#231918">
                                <polygon id="path90" points="43.9999989 54.6666653 43.9999989 68.7213316 1.00266664 68.7439983 0.978666642 0.550666653 43.9999989 0.550666653 43.9999989 14.141333 15.4733329 14.141333 15.4733329 27.3893326 43.9999989 27.3893326 43.9999989 41.575999 15.4733329 41.575999 15.4733329 54.6666653"></polygon>
                            </g>
                            <polygon id="path92" fill="#231918" points="827.815979 1.86266662 813.786646 1.86266662 813.786646 70.0279982 827.815979 70.0279982"></polygon>
                            <polygon id="path94" fill="#231918" points="857.385312 56.3346653 830.885313 56.3346653 830.885313 70.0293316 857.385312 70.0293316"></polygon>
                            <polygon id="path96" fill="#231918" points="857.385312 28.9226659 830.885313 28.9226659 830.885313 42.4853323 857.385312 42.4853323"></polygon>
                            <polygon id="path98" fill="#231918" points="857.385312 1.88666662 830.885313 1.88666662 830.885313 15.1839996 857.385312 15.1839996"></polygon>
                            <g id="g100" transform="translate(860.719445, 0.716133)" fill="#231918">
                                <polygon id="path102" points="39.999999 69.3333316 0.25466666 69.3333316 0.25466666 55.6413319 13.657333 55.6413319 13.657333 0.989333309 27.0613327 0.989333309 27.0613327 55.6413319 39.999999 55.6413319"></polygon>
                            </g>
                        </g>
                    </g>
                </g>
            </g>
        </g>
    </g>
</svg>