<?xml version="1.0" encoding="UTF-8" standalone="no"?>
<svg
   xmlns:dc="http://purl.org/dc/elements/1.1/"
   xmlns:cc="http://creativecommons.org/ns#"
   xmlns:rdf="http://www.w3.org/1999/02/22-rdf-syntax-ns#"
   xmlns:svg="http://www.w3.org/2000/svg"
   xmlns="http://www.w3.org/2000/svg"
   viewBox="0 0 1122.5187 793.70667"
   height="793.70667"
   width="1122.5187"
   xml:space="preserve"
   id="svg2"
   version="1.1"><metadata
     id="metadata8"><rdf:RDF><cc:Work
         rdf:about=""><dc:format>image/svg+xml</dc:format><dc:type
           rdf:resource="http://purl.org/dc/dcmitype/StillImage" /></cc:Work></rdf:RDF></metadata><defs
     id="defs6"><clipPath
       id="clipPath18"
       clipPathUnits="userSpaceOnUse"><path
         id="path16"
         d="M 0,595.28 H 841.889 V 0 H 0 Z" /></clipPath></defs><g
     transform="matrix(1.3333333,0,0,-1.3333333,0,793.70667)"
     id="g10"><g
       id="g12"><g
         clip-path="url(#clipPath18)"
         id="g14"><g
           transform="translate(166.8096,288.4775)"
           id="g20"><path
             id="path22"
             style="fill:#dadbdc;fill-opacity:1;fill-rule:nonzero;stroke:none"
             d="m 0,0 36.275,68.251 h 4.031 L 98.885,-37.351 H -19.616 l 2.704,4.835 h 59.519 0.823 c 0,0 0.706,-0.099 -0.353,1.715 l -1.057,2.216 c 0,0 -0.252,0.504 -2.721,0.504 h -54.011 l 2.553,4.636 H 38.56 c 0,0 0.671,-0.067 0.134,1.209 -0.538,1.276 -1.276,2.754 -1.276,2.754 0,0 0.2,0.74 -1.68,0.605 H -9.741 l 2.485,4.635 h 40.038 c 0,0 2.082,-0.404 1.074,1.747 -1.141,1.948 -0.873,2.947 -3.357,2.947 H -4.837 l 2.284,4.442 h 30.834 c 0,0 1.545,0.134 1.142,1.007 -0.402,0.873 -1.544,3.427 -1.544,3.427 0,0 -0.605,0.402 -1.747,0.402 H 0.47 C 0.47,-0.27 0,-0.403 0,0" /></g><g
           transform="translate(267.7959,251.084)"
           id="g24"><path
             id="path26"
             style="fill:#dadbdc;fill-opacity:1;fill-rule:nonzero;stroke:none"
             d="m 0,0 49.49,-0.048 v 58.31 h 28.498 v 5.105 H -27.629 V 58.53 h 26.771 0.268 0.807 z" /></g><path
           id="path28"
           style="fill:#dadbdc;fill-opacity:1;fill-rule:nonzero;stroke:none"
           d="M 345.771,323.587 H 240.167 v -5.105 h 105.604 z" /><path
           id="path30"
           style="fill:#dadbdc;fill-opacity:1;fill-rule:nonzero;stroke:none"
           d="M 345.771,332.724 H 240.167 v -5.106 h 105.604 z" /><path
           id="path32"
           style="fill:#dadbdc;fill-opacity:1;fill-rule:nonzero;stroke:none"
           d="M 345.771,341.86 H 240.167 v -5.106 h 105.604 z" /><path
           id="path34"
           style="fill:#dadbdc;fill-opacity:1;fill-rule:nonzero;stroke:none"
           d="M 345.771,350.996 H 240.167 v -5.105 h 105.604 z" /><g
           transform="translate(359.3154,271.7402)"
           id="g36"><path
             id="path38"
             style="fill:#231918;fill-opacity:1;fill-rule:nonzero;stroke:none"
             d="m 0,0 h -12.978 l 11.691,28.992 c 0,0 0.351,1.051 1.287,0.468 z m -10.289,30.765 -20.926,-51.108 h 10.172 l 4.089,9.939 h 16.603 v -9.939 H 9 V 20.46 h 23.149 v 10.286 z" /></g><path
           id="path40"
           style="fill:#231918;fill-opacity:1;fill-rule:nonzero;stroke:none"
           d="m 391.232,271.74 h -20.11 v 10.053 h 20.11 z" /><g
           transform="translate(423.9067,302.5049)"
           id="g42"><path
             id="path44"
             style="fill:#231918;fill-opacity:1;fill-rule:nonzero;stroke:none"
             d="M 0,0 V -10.365 H -20.108 V -20.77 h 17.887 v -10.053 h -17.887 v -20.342 h -9.82 L -29.869,0 Z" /></g><g
           transform="translate(447.8735,271.7627)"
           id="g46"><path
             id="path48"
             style="fill:#231918;fill-opacity:1;fill-rule:nonzero;stroke:none"
             d="m 0,0 h -12.977 l 11.69,28.994 c 0,0 0.35,1.053 1.287,0.467 z m -11.398,30.764 -21.687,-51.107 h 11.048 l 4.208,9.938 h 17.478 v -9.938 H 9.937 l 0.06,51.107 z" /></g><path
           id="path50"
           style="fill:#231918;fill-opacity:1;fill-rule:nonzero;stroke:none"
           d="m 446.178,304.506 h -9.119 v 9.586 h 9.119 z" /><path
           id="path52"
           style="fill:#231918;fill-opacity:1;fill-rule:nonzero;stroke:none"
           d="m 457.634,304.506 h -9.119 v 9.586 h 9.119 z" /><path
           id="path54"
           style="fill:#de2f13;fill-opacity:1;fill-rule:nonzero;stroke:none"
           d="M 766.872,304.528 H 756.35 v 9.587 h 10.522 z" /><g
           transform="translate(460.0542,292.5508)"
           id="g56"><path
             id="path58"
             style="fill:#231918;fill-opacity:1;fill-rule:nonzero;stroke:none"
             d="m 0,0 v 9.585 c 0,0 7.953,2.34 15.201,-4.442 7.246,-6.782 5.979,-17.313 4.323,-20.926 -1.285,-2.807 -3.154,-5.613 -4.441,-6.664 l 7.599,-18.689 H 11.226 L 1.288,-16.72 c 0,0 9.233,-1.285 9.938,8.302 C 10.057,2.104 1.639,0 0,0" /></g><g
           transform="translate(509.8931,285.1846)"
           id="g60"><path
             id="path62"
             style="fill:#231918;fill-opacity:1;fill-rule:nonzero;stroke:none"
             d="m 0,0 6.665,6.897 c 0,0 -1.168,11.224 -15.434,11.224 -14.262,0 -17.885,-13.679 -17.885,-18.472 0,-4.795 2.454,-12.975 15.899,-12.975 11.106,0 10.29,-5.498 10.29,-5.498 0,0 0,-5.726 -7.367,-5.726 -6.432,0 -9.234,6.663 -9.234,6.663 l -7.6,-7.366 c 0,0 5.143,-9.704 16.949,-9.704 11.81,0 18.008,10.171 18.008,17.654 0,7.484 -5.028,13.911 -15.666,13.911 -9.118,-0.115 -9.82,1.753 -10.172,5.848 0,2.806 4.56,5.024 7.129,5.024 C -5.844,7.48 -1.986,6.897 0,0" /></g><path
           id="path64"
           style="fill:#231918;fill-opacity:1;fill-rule:nonzero;stroke:none"
           d="m 518.312,292.2 h 30.862 v 10.286 h -30.862 z" /><path
           id="path66"
           style="fill:#231918;fill-opacity:1;fill-rule:nonzero;stroke:none"
           d="m 528.953,251.408 h 10.289 v 40.873 h -10.289 z" /><g
           transform="translate(583.7808,275.8311)"
           id="g68"><path
             id="path70"
             style="fill:#231918;fill-opacity:1;fill-rule:nonzero;stroke:none"
             d="m 0,0 c 1.657,3.613 4.677,14.379 -3.975,22.095 -5.027,6.199 -16.368,4.56 -16.368,4.56 h -1.518 -1.986 -8.537 v -51.106 h 10.523 v 40.702 l 1.518,0.195 c 3.095,0.323 11.48,1.128 12.511,-8.144 C -8.536,-1.285 -20.227,0.586 -20.227,0.586 L -10.036,-24.47 H 1.421 L -5.961,-6.779 C -4.676,-5.728 -1.288,-2.806 0,0" /></g><g
           transform="translate(752.7729,275.9482)"
           id="g72"><path
             id="path74"
             style="fill:#231918;fill-opacity:1;fill-rule:nonzero;stroke:none"
             d="m 0,0 c 1.658,3.614 4.97,14.205 -3.684,21.92 -6.661,5.788 -15.312,4.735 -15.312,4.735 l -11.925,-0.117 v -51.106 h 10.52 v 41.521 l 1.637,-0.118 c 2.689,0 9.841,0.855 10.873,-8.418 -0.7,-9.587 -10.873,-7.948 -10.873,-7.948 l 10.19,-25.056 H 2.883 L -4.733,-5.963 C -3.449,-4.909 -1.284,-2.807 0,0" /></g><g
           transform="translate(599.896,251.3613)"
           id="g76"><path
             id="path78"
             style="fill:#231918;fill-opacity:1;fill-rule:nonzero;stroke:none"
             d="m 0,0 20.11,51.107 -11.558,0.018 -7.6,-18.94 -8.415,18.94 H -19.038 L -4.773,16.988 -11.225,0 Z" /></g><g
           transform="translate(648.6626,287.29)"
           id="g80"><path
             id="path82"
             style="fill:#231918;fill-opacity:1;fill-rule:nonzero;stroke:none"
             d="m 0,0 v 12.741 c 0,0 -4.673,2.105 -9.583,2.105 -4.91,0 -25.485,-3.507 -25.485,-26.42 0,-22.916 23.381,-24.319 25.135,-24.319 1.753,0 3.857,-0.468 9.468,1.987 v 11.925 c 0,0 -3.974,-3.039 -9.004,-3.039 -5.024,0 -14.61,3.04 -14.61,14.731 C -24.079,1.402 -9.933,7.948 0,0" /></g><g
           transform="translate(650.5347,302.4863)"
           id="g84"><path
             id="path86"
             style="fill:#231918;fill-opacity:1;fill-rule:nonzero;stroke:none"
             d="m 0,0 v -51.106 h 11.107 v 23.867 c 0,0 0.82,0.232 1.286,-1.403 0.468,-1.635 9.488,-22.464 9.488,-22.464 H 33.338 L 22.567,-25.719 32.386,0 H 20.929 L 11.691,-22.212 11.107,-21.51 10.991,0 Z" /></g><g
           transform="translate(718.9282,291.9639)"
           id="g88"><path
             id="path90"
             style="fill:#231918;fill-opacity:1;fill-rule:nonzero;stroke:none"
             d="m 0,0 v 10.541 l -32.248,0.017 -0.018,-51.145 H 0 v 10.193 h -21.395 v 9.936 H 0 v 10.64 H -21.395 V 0 Z" /></g><path
           id="path92"
           style="fill:#231918;fill-opacity:1;fill-rule:nonzero;stroke:none"
           d="M 766.862,251.397 H 756.34 v 51.124 h 10.522 z" /><path
           id="path94"
           style="fill:#231918;fill-opacity:1;fill-rule:nonzero;stroke:none"
           d="m 789.039,292.251 h -19.875 v 10.271 h 19.875 z" /><path
           id="path96"
           style="fill:#231918;fill-opacity:1;fill-rule:nonzero;stroke:none"
           d="m 789.039,271.692 h -19.875 v 10.172 h 19.875 z" /><path
           id="path98"
           style="fill:#231918;fill-opacity:1;fill-rule:nonzero;stroke:none"
           d="m 789.039,251.415 h -19.875 v 9.973 h 19.875 z" /><g
           transform="translate(821.5396,302.5371)"
           id="g100"><path
             id="path102"
             style="fill:#231918;fill-opacity:1;fill-rule:nonzero;stroke:none"
             d="m 0,0 h -29.809 v -10.269 h 10.052 v -40.989 h 10.053 v 40.989 H 0 Z" /></g></g></g></g></svg>